<?xml version="1.0" encoding="utf-8"?>
<svg version="1.1" width="3300" height="2936.829937373867" viewBox="547.741 0 2213.648 2252.155" xmlns="http://www.w3.org/2000/svg">
  <g transform="scale(15) translate(10, 10)">
    <g id="SvgjsG1022" featurekey="monogramFeature-0" transform="matrix(3.187054148699691,0,0,3.187054148699691,42.35201347650826,-57.372026178817585)" fill="#0d7377">
      <path d="M33.744 45.113 c0.0012305 0.058887 -0.0009375 0.11748 -0.0033985 0.17473 c-0.0016406 0.034981 0.00041015 0.069552 -0.0020508 0.10494 c-0.0016406 0.022676 -0.0045117 0.044883 -0.0061524 0.06756 l-0.0036914 0.040781 c-0.61848 8.1378 -7.4664 14.497 -15.641 14.497 c-8.6502 0 -15.688 -7.038 -15.688 -15.688 c0 -1.8191 1.4749 -3.2941 3.2941 -3.2941 s3.2941 1.4749 3.2941 3.2941 c0 5.0177 4.0822 9.1002 9.1002 9.1002 c4.2877 0 7.9374 -3.019 8.8638 -7.086 l-11.194 -11.194 c-1.2863 -1.2863 -1.2863 -3.3719 0 -4.6583 c1.2868 -1.2863 3.3719 -1.2863 4.6587 0 l12.364 12.364 c0.025137 0.025137 0.046113 0.051914 0.07002 0.07746 c0.040371 0.043242 0.080742 0.086076 0.11865 0.13136 c0.03539 0.042012 0.067908 0.084846 0.10084 0.12767 c0.031699 0.041602 0.062988 0.083202 0.092634 0.12604 c0.03293 0.047754 0.06381 0.09633 0.093864 0.14531 c0.025547 0.041602 0.050684 0.083616 0.074592 0.12644 c0.028008 0.051035 0.054375 0.10207 0.079512 0.15392 c0.022207 0.044883 0.043594 0.090174 0.063342 0.13629 c0.021797 0.050625 0.041953 0.10125 0.060882 0.15229 c0.018926 0.050625 0.036621 0.10084 0.053086 0.15229 c0.015235 0.048985 0.029238 0.09756 0.042422 0.14695 c0.014824 0.054785 0.028418 0.10998 0.040371 0.166 c0.010313 0.048574 0.018574 0.097146 0.026836 0.14572 c0.009492 0.056426 0.018164 0.11326 0.024727 0.17051 c0.0057422 0.051856 0.0094338 0.10371 0.012715 0.15557 c0.0036914 0.053965 0.0069726 0.10793 0.0077928 0.16231 z M2.432 32.887 c-0.0012305 -0.058477 0.001289 -0.11748 0.00375 -0.17514 c0.0016406 -0.034981 -0.00041015 -0.069552 0.0020508 -0.10494 c0.0016406 -0.022676 0.0045117 -0.044883 0.0061524 -0.06756 l0.0036914 -0.040781 c0.61848 -8.1378 7.4664 -14.497 15.641 -14.497 c8.6502 0 15.688 7.038 15.688 15.688 c0 1.8191 -1.4749 3.2941 -3.2941 3.2941 s-3.2941 -1.4749 -3.2941 -3.2941 c0 -5.0177 -4.0822 -9.1002 -9.1002 -9.1002 c-4.2877 0 -7.9374 3.019 -8.8638 7.086 l11.194 11.194 c1.2863 1.2863 1.2863 3.3719 0 4.6583 c-0.6432 0.6432 -1.4861 0.96474 -2.3293 0.96474 s-1.6861 -0.32156 -2.3293 -0.96474 l-12.364 -12.364 c-0.025137 -0.025137 -0.046113 -0.051914 -0.07002 -0.07746 c-0.040371 -0.043242 -0.080742 -0.086076 -0.11865 -0.13136 c-0.03539 -0.042012 -0.067908 -0.084846 -0.10084 -0.12767 c-0.031699 -0.041602 -0.062988 -0.083202 -0.092634 -0.12604 c-0.03293 -0.047754 -0.06381 -0.09633 -0.093864 -0.14531 c-0.025547 -0.041602 -0.050684 -0.083616 -0.074592 -0.12644 c-0.028008 -0.051035 -0.054375 -0.10207 -0.079512 -0.15392 c-0.022207 -0.045293 -0.043184 -0.090174 -0.063342 -0.13629 c-0.021797 -0.050215 -0.041953 -0.10125 -0.060882 -0.15229 c-0.018926 -0.050215 -0.036621 -0.10043 -0.053086 -0.15188 c-0.015644 -0.048574 -0.029648 -0.09756 -0.042832 -0.14695 c-0.014824 -0.055195 -0.028418 -0.10998 -0.040371 -0.166 c-0.010313 -0.048574 -0.018574 -0.097146 -0.026836 -0.14572 c-0.009492 -0.056426 -0.018164 -0.11326 -0.024727 -0.17051 c-0.0057422 -0.051856 -0.0094338 -0.10371 -0.012715 -0.15557 c-0.0036914 -0.053965 -0.0069726 -0.10793 -0.0077928 -0.16231 z"/>
    </g>
    <g id="SvgjsG1023" featurekey="nameFeature-0" transform="matrix(0.8022334150855895,0,0,0.8022334150855895,-1.7970030487097655,143.37843129802226)" fill="#0d7377"/>
  </g>
</svg>